<?xml version="1.0" encoding="UTF-8"?>
<svg id="Layer_2" data-name="Layer 2" xmlns="http://www.w3.org/2000/svg" viewBox="0 0 165.5 135.4">
  <defs>
    <style>
      .cls-1 {
        fill: none;
      }

      .cls-1, .cls-2 {
        stroke-width: 0px;
      }

      .cls-3 {
        opacity: .7;
      }
    </style>
  </defs>
  <g id="Layer_2-2" data-name="Layer 2">
    <g id="Layer_1-2" data-name="Layer 1-2">
      <g class="cls-3">
        <g id="Layer_2-2" data-name="Layer 2-2">
          <g id="nHrVLo">
            <path class="cls-2" d="M128.09,93.75h-9.18c-.26,0-.52-.08-.73-.25-1.68-1.72-3.35-3.46-4.97-5.16h8.61c-1.5-2.73-4.92-3.74-7.66-2.24-.62.34-1.18.8-1.63,1.34-1.45,1.61-1.77,3.94-.82,5.89.83,2.09,2.87,3.45,5.12,3.4h8.55l-2.1,2.24-.65.63-2.79,2.64c-2.29.2-4.6-.03-6.81-.67-5.81-2.13-8.8-8.56-6.67-14.38,2.13-5.81,8.56-8.8,14.38-6.67,3.85,1.41,6.62,4.81,7.23,8.86.04.14.08.28.13.42v3.94h-.01ZM43.15,85.57c1.8-1.91,3.48-3.56,5.2-5.26.24-.17.53-.24.82-.21,5.15.29,9.43,4.07,10.35,9.14,1.03,5.9-2.85,11.54-8.72,12.7-5.91,1.3-11.76-2.43-13.06-8.34-.12-.53-.2-1.08-.23-1.62-.1-4.09-.1-8.2-.1-12.3v-9.75l3.17,3.19c.76.8,1.91,1.47,2.24,2.43.23,1.06.27,2.16.11,3.23v12.43c.02,2.86,2.2,5.24,5.05,5.51,3.08.2,5.73-2.14,5.93-5.22s-2.14-5.73-5.22-5.93h-.06c-1.78-.02-3.58,0-5.49,0h.01ZM45.59,33.09h58.15c4.04-.2,7.53,2.79,7.97,6.81.46,2.41-.34,4.89-2.12,6.58-6.63,6.65-13.28,13.27-19.96,19.87-3.05,3.01-7.97,2.97-10.98-.08-.08-.09-.17-.17-.25-.26l-19.75-19.81-12.18-12.16-.88-.94h0ZM74.6,56.9l6.35,6.33c1.44,1.79,4.07,2.07,5.86.62,0,0,0,0,0,0,.23-.18.44-.39.62-.62,6.45-6.37,12.88-12.75,19.3-19.12,1.34-1.15,1.79-3.04,1.11-4.67-.68-1.68-2.36-2.73-4.17-2.6h-7.97c-.62.04-1.2.28-1.66.69-3.82,3.82-7.65,7.53-11.47,11.32l-7.96,8.05h0ZM54.96,36.8l15.3,15.39,15.3-15.3-30.6-.1h0ZM104,102.22h-5.39v-11.67c.15-2.64-1.86-4.9-4.49-5.05,0,0,0,0,0,0-.31-.02-.62,0-.93.04-2.35.3-4.12,2.29-4.13,4.67v12.01h-5.56v-11.88c-.04-5.68,4.53-10.32,10.21-10.36,5.12-.04,9.49,3.69,10.25,8.76.04.5.04,1.01,0,1.51v11.3c.1.19.08.38.06.67h-.01ZM78.1,81.42l-4.07,3.82c-.22.15-.48.24-.75.23-3.21-.36-6.11,1.95-6.47,5.16-.04.32-.05.64-.03.96v10.56h-5.43v-10.65c-.1-6.14,4.73-11.24,10.86-11.47,2.06-.09,4.1.39,5.89,1.4h0ZM81.81,80.23v21.95h-5.47v-16.06c.02-.41.18-.81.46-1.11,1.55-1.66,3.16-3.31,4.74-4.95,0,0,.27.17.27.17Z"/>
          </g>
        </g>
      </g>
      <path class="cls-1" d="M0,0h165.5v135.4H0V0Z"/>
    </g>
  </g>
</svg>