<svg id="Layer_2" data-name="Layer 2" xmlns="http://www.w3.org/2000/svg" viewBox="0 0 165.5 135.4">
    <defs>
        <style>
            .cls-2{stroke-width:0;fill:#fff}
        </style>
    </defs>
    <g id="Layer_1-2" data-name="Layer 1">
        <g data-name="Layer 2">
            <g data-name="Layer 1-2" id="Layer_2-2">
                <g id="nHrVLo">
                    <path class="cls-2" d="M128.09 93.75h-9.18c-.26 0-.52-.08-.73-.25-1.68-1.72-3.35-3.46-4.97-5.16h8.61a5.643 5.643 0 0 0-9.29-.9 5.318 5.318 0 0 0-.82 5.89 5.384 5.384 0 0 0 5.12 3.4h8.55l-2.1 2.24-.65.63-2.79 2.64c-2.29.2-4.6-.03-6.81-.67-5.81-2.13-8.8-8.56-6.67-14.38 2.13-5.81 8.56-8.8 14.38-6.67 3.85 1.41 6.62 4.81 7.23 8.86.04.14.08.28.13.42v3.94ZM43.15 85.57c1.8-1.91 3.48-3.56 5.2-5.26.24-.17.53-.24.82-.21 5.15.29 9.43 4.07 10.35 9.14 1.03 5.9-2.85 11.54-8.72 12.7-5.91 1.3-11.76-2.43-13.06-8.34-.12-.53-.2-1.08-.23-1.62-.1-4.09-.1-8.2-.1-12.3v-9.75l3.17 3.19c.76.8 1.91 1.47 2.24 2.43.23 1.06.27 2.16.11 3.23v12.43c.02 2.86 2.2 5.24 5.05 5.51 3.08.2 5.73-2.14 5.93-5.22.2-3.08-2.14-5.73-5.22-5.93h-.06c-1.78-.02-3.58 0-5.49 0ZM45.59 33.09h58.15c4.04-.2 7.53 2.79 7.97 6.81.46 2.41-.34 4.89-2.12 6.58a3398.66 3398.66 0 0 1-19.96 19.87c-3.05 3.01-7.97 2.97-10.98-.08-.08-.09-.17-.17-.25-.26L58.65 46.2 46.47 34.04l-.88-.94ZM74.6 56.9l6.35 6.33a4.164 4.164 0 0 0 5.86.62c.23-.18.44-.39.62-.62 6.45-6.37 12.88-12.75 19.3-19.12a4.085 4.085 0 0 0 1.11-4.67 4.173 4.173 0 0 0-4.17-2.6H95.7c-.62.04-1.2.28-1.66.69-3.82 3.82-7.65 7.53-11.47 11.32l-7.96 8.05ZM54.96 36.8l15.3 15.39 15.3-15.3-30.6-.1ZM104 102.22h-5.39V90.55a4.78 4.78 0 0 0-4.5-5.05c-.31-.02-.62 0-.93.04-2.35.3-4.12 2.29-4.13 4.67v12.01h-5.56V90.34c-.04-5.68 4.53-10.32 10.21-10.36 5.12-.04 9.49 3.69 10.25 8.76.04.5.04 1.01 0 1.51v11.3c.1.19.08.38.06.67ZM78.1 81.42l-4.07 3.82c-.22.15-.48.24-.75.23a5.854 5.854 0 0 0-6.47 5.16c-.04.32-.05.64-.03.96v10.56h-5.43V91.5c-.1-6.14 4.73-11.24 10.86-11.47a11 11 0 0 1 5.89 1.4ZM81.81 80.23v21.95h-5.47V86.12c.02-.41.18-.81.46-1.11 1.55-1.66 3.16-3.31 4.74-4.95l.27.17Z"/>
                </g>
            </g>
        </g>
        <path style="stroke-width:0;fill:none" d="M0 0h165.5v135.4H0z"/>
    </g>
</svg>
