<svg id="Layer_2" data-name="Layer 2" xmlns="http://www.w3.org/2000/svg" viewBox="0 0 165.5 135.4">
    <defs>
        <style>
            .cls-2{stroke-width:0;fill:#fff}
        </style>
    </defs>
    <g id="Layer_1-2" data-name="Layer 1">
        <path style="stroke-width:0;fill:none" d="M0 0h165.5v135.4H0z"/>
        <g data-name="Layer 2">
            <g data-name="Layer 1-2" id="Layer_2-2">
                <path class="cls-2" d="M131.99 48.51c-1.7-.27-3.38-.7-5-1.27 0 0-1.42-1.08 1.42-1.23s6.27-.46 10.22-.58c-4.56-.42-9.14-.51-13.71-.28-4.94.13-4.59 1.05-2.85 1.8 1.91.68 3.85 1.27 5.81 1.75 2.68.81 1.05 1.04-.41 1.15s-16.13-2.04-24.22.54-9.38.44-18.74.56h-3.58c-9.39-.11-10.61 2.09-18.75-.56s-22.65-.41-24.11-.53-3.08-.36-.4-1.17c1.96-.48 3.9-1.07 5.8-1.75 1.68-.74 2.04-1.67-2.91-1.8-4.57-.23-9.15-.13-13.71.28 3.95.13 7.39.46 10.23.58 2.84.13 1.42 1.23 1.42 1.23-1.63.57-3.3.99-5 1.27-1.65.48-5.57 1.35-1.15 2.56 3.13.77 6.35 1.18 9.57 1.23-1.81.53-1.18.13-5.7 1.42-5.7 1.7 4.46 2.92 10.91 3.68-2.32.63-2.09.34-5.46 1.27-5.88 1.7-1.54 2.05 3.46 3.28 3.73.81 9.77 1.67 12.72 3.31a51.415 51.415 0 0 0 25.21 6.87c8.04 0 15.82-2.04 24.55-6.82 2.96-1.72 8.99-2.54 12.72-3.35 5-1.17 9.35-1.58 3.48-3.21-3.36-.93-3.13-.64-5.44-1.27 6.44-.76 16.54-1.98 10.91-3.68-4.57-1.42-3.95-.97-5.7-1.42 3.23-.05 6.45-.46 9.59-1.23 4.36-1.3.44-2.15-1.21-2.64Zm-87.35 6.17s-4.72-.51-1.61-1.64c3.55-1.27 22.31.56 19.46 2.79-3.89-1.27-13.59-.51-17.85-1.15Zm13.57 5.34s-15.67.26-11.4-1.62c3.35-1.51 13.05.51 11.4 1.62Zm43.96 5.95c-4.7 3.01-14.01 4.27-19.41 4.4-5.43-.13-14.66-1.42-19.33-4.4-3.02-1.94-4.84-4.86-2.41-7.44C64.8 54.5 74 52.33 82.44 52.4h.63c8.43-.09 17.65 2.09 21.46 6.13 2.44 2.56.71 5.5-2.38 7.44h.03Zm16.57-7.58c4.27 1.88-11.4 1.62-11.4 1.62-1.68-1.11 8.02-3.13 11.4-1.62Zm2.17-3.71c-4.27.64-13.93-.11-17.77 1.15-2.85-2.21 15.86-4.06 19.41-2.85 3.05 1.18-1.64 1.7-1.64 1.7Zm-27.07 7.46c-.88.12-1.74.36-2.55.71-5.31 2.14-15.33 1.7-17.67.38a2.463 2.463 0 0 1-.54-4.1c2.59-1.61 12.44-1.14 18.04.26 1.42.4 1.61.57 2.85.85 1.68.47 8.78.58 8.41 0-4.27-6.27-23.31-5.81-28.11-4.87s-6.9 1.51-8.55 2.64c-4.49 2.94-2.32 5.7.31 7.04 6.43 3.42 23.69 4.37 33.71-.23 1.18-.56 3.16-2.41 2.78-2.85s-4.8-.54-8.68.17ZM72.76 89.84h-7.92l.76-1c.47-.35 1.04-.52 1.62-.47h8.63l.88-1.42H66.3c-1.91 0-3.11.4-3.59 1.27l-1.07 1.51c-.71 1.01-.53 1.51.57 1.51h8.26c-.22.4-.5.76-.83 1.08-.28.27-.65.43-1.04.46h-8.98l-1.21 1.42h9.76c2.51 0 4.06-.47 4.67-1.42l.91-1.42c.6-1.01.26-1.51-1.01-1.51Zm6.34 2.93c-.7 0-1.05-.14-1.08-.43l2.55-3.51c.47-.35 1.05-.52 1.64-.47h8.55l.93-1.42h-10.4c-1.91 0-3.09.4-3.58 1.27l-3.18 4.43c-.08.14-.13.29-.14.46 0 .7 1.07 1.05 3.22 1.05h9.29l1-1.42h-4.27l-4.52.04Zm-45.02 0c-.68 0-1.04-.14-1.07-.43l2.55-3.51c.47-.35 1.04-.52 1.62-.47h8.63l.91-1.42H36.26c-1.91 0-3.11.4-3.58 1.27l-3.19 4.46c-.08.14-.13.3-.14.46 0 .7 1.08 1.05 3.23 1.05h9.28l1.01-1.42h-8.81Zm22.8-5.79h-8.39l-.95 1.42h8.81c.54 0 .83.14.88.47l-.76 1h-8.73c-.61-.07-1.22.16-1.62.63l-1.6 2.21c-.08.14-.13.29-.14.46 0 .7 1.08 1.05 3.23 1.05h5.54c2.51 0 4.06-.47 4.67-1.42l3.02-4.36c-.06-1-1.38-1.45-3.96-1.45Zm-2.17 5.37c-.32.26-.7.42-1.11.46h-4.52c-.68 0-1.04-.14-1.07-.43l.78-1.08h6.75l-.84 1.05Zm80.45-5.37h-8.88c-1.91 0-3.09.4-3.58 1.27l-3.22 4.43a.94.94 0 0 0-.13.46c0 .7 1.07 1.05 3.21 1.05h9.29l1-1.42h-8.78c-.7 0-1.04-.14-1.08-.43l.77-1.04h8.55c.89.06 1.75-.31 2.31-1l1.2-1.94c.63-.93.41-1.38-.66-1.38Zm-2.85 2.1-.56.74h-7.05l.87-1c.47-.35 1.05-.52 1.64-.47h4.57c.93-.06 1.1.19.53.73Zm2.08 3.74c-.22 0-.44.08-.6.24-.18.16-.29.4-.28.64 0 .48.37.88.85.88h.03c.23 0 .45-.09.61-.26a.87.87 0 0 0 .27-.63c0-.48-.37-.88-.85-.88h-.03Zm.51 1.42a.729.729 0 1 1-1.09-.97l.06-.06c.25-.28.68-.31.97-.06l.06.06c.28.28.28.74 0 1.03Zm-33.01-7.26H93.5l-.95 1.42h8.81c.53 0 .81.14.87.47l-.76 1h-8.72c-.61-.07-1.22.17-1.62.63l-1.55 2.18c-.08.14-.13.3-.14.46 0 .7 1.08 1.05 3.23 1.05h5.46c2.51 0 4.06-.47 4.67-1.42l3.02-4.36c-.03-.97-1.34-1.42-3.92-1.42Zm-2.18 5.37c-.32.26-.7.42-1.11.46h-4.49c-.7 0-1.05-.14-1.08-.43l.8-1.08h6.73l-.84 1.05Zm35.06 1.78v-.11a.22.22 0 0 0-.09-.21.33.33 0 0 0-.14 0c.06.01.11.01.17 0 .02-.06.02-.12 0-.17 0-.1-.05-.19-.13-.24a.34.34 0 0 0-.2 0h-.47v.97h.26v-.36h.2v.33h.24l.16-.2Zm-.28-.5s-.1.02-.14 0h-.1v-.27h.21s.02.08 0 .11c.04.04.05.1.03.16Zm-10.61-9.52h-2.98l-2.15 2.85h-6.7c-2.51 0-4.06.48-4.67 1.42l-3.03 4.39c0 .93 1.42 1.42 3.96 1.42h5.6c1.91 0 3.09-.38 3.58-1.27l3.19-4.43 3.21-4.39Zm-9.23 8.19c-.47.35-1.05.52-1.64.48h-4.13c-.53 0-.83-.17-.87-.48l2.58-3.51c.28-.27.64-.43 1.03-.46h4.5c.68 0 1.04.13 1.07.43l-2.54 3.53Z"/>
            </g>
        </g>
    </g>
</svg>
