<?xml version="1.0" encoding="UTF-8"?>
<svg id="Layer_2" data-name="Layer 2" xmlns="http://www.w3.org/2000/svg" viewBox="0 0 165.5 135.4">
  <defs>
    <style>
      .cls-1 {
        fill: none;
      }

      .cls-1, .cls-2 {
        stroke-width: 0px;
      }

      .cls-3 {
        opacity: .7;
      }

      .cls-2 {
        fill: #3b82f6;
      }
    </style>
  </defs>
  <g id="Layer_2-2" data-name="Layer 2">
    <g id="Layer_1-2" data-name="Layer 1-2">
      <g class="cls-3">
        <g id="Layer_2-2" data-name="Layer 2-2">
          <g id="gNqdmR.tif">
            <path class="cls-2" d="M26.74,51.46c.76.43,1.49.92,2.28,1.29.74.36,1.54.6,2.36.71,1.09.08,2.17.35,3.17.8.63.26,1.29.48,1.95.65.36.11.63-.1.92-.27.64-.37,1.28-.76,1.94-1.1,1.24-.62,2.66-.76,4-.39.31.13.6.3.87.5-1,.37-2.11.36-2.87,1.26h19.26c-.62-.87-1.62-.67-2.39-1,.13-.31.42-.53.76-.57,1.4-.36,2.88-.2,4.16.47.53.29,1.07.56,1.58.89.24.18.54.28.84.28h5.57c.36-.04.72-.12,1.06-.23.1.5.12,1.02.06,1.53-1.99-.3-4-.4-6-.3-.38,0-.76.08-1.11.25-.61.26-1.24.47-1.86.68-.51.19-1.08,0-1.37-.45-.32-.39-.82-.58-1.32-.51h-19c-.5-.06-1,.13-1.34.51-.47.56-1.13.36-1.7.23-.68-.19-1.35-.42-2-.68l-.86.29c-.51.2-1,.43-1.52.63-1.01.34-2.06.57-3.13.68-.43.07-.84.21-1.36.34l1.23,1.25c-.78-.07-1.52-.35-2.15-.82l-1.27.84c.85.37,1.67,0,2.49.26-.29.27-.67.42-1.07.43-.61.02-1.22-.06-1.8-.23-.21-.07-.43-.1-.65-.11-1.45-.05-2.71-.98-3.2-2.34-.12-.26-.23-.53-.35-.77v-1.85c.12-.3.22-.6.35-.88.47-1.01,1.29-1.82,2.31-2.27h1.16ZM26.92,52.95h-.07v.06l.07-.06h.07c.07,0,0,0,0-.05l-.07.05ZM27.42,53.12h-.07c-.07,0,0,0,0,.05l.09-.09c.14,0,.13-.1,0-.16l-.05-.24-.1.05.16.19s-.03.2-.03.2ZM24.92,53.28h.07v-.05l-.07.05ZM26.58,53.61h.08v-.05l-.08.05ZM26.74,57.92v.07h.06l-.09-.08v-.07l.03.08ZM34.22,54.92s-.05-.06,0,0-.03,0,0,0ZM27.57,57.46v.07h.06l-.06-.07v-.07.07ZM26.41,57.25v.08h.06l-.06-.07v-.07s0,.06,0,.06ZM26.74,53.94h.07v-.05l-.09.08h-.07v.06s.09-.09.09-.09ZM31.26,54.79s0,.06,0,0c-.06-.14-.11-.13-.16,0h-.25v.11l.19-.16.22.05ZM25.26,55.62l.14-.16-.1-.06v.25c-.15.06-.14.11,0,.16v.25h.1l-.16-.19.02-.25ZM29.76,56.62l.16.13.06-.11h-.25v-.18l.5-.16.19.16v-.11h-.24v-.26l.25-.24-.13-.07-.12.32c-.24,0-.51,0-.49.33h-.46c-.08-.3-.27-.3-.5-.17v-.33c.22.02.43-.12.49-.33h.34c.17.19.34.22.49.07l-.49-.07c0-.24-.11-.34-.34-.33l.15-.17c.32-.27.09-.3-.15-.33v-.31l.51.16.19.14.06-.1-.25-.05v-.34h.07l-.08.09h-.49l-.31-.41c-.42-.25-.97-.11-1.22.31-.02.03-.04.06-.05.1.16-.09.33-.17.5-.23.22,0,.26.14.28.31-.16,0-.33-.22-.44.13h.44l-.17.34h-.34c-.06-.22-.27-.36-.49-.33l-.13-.42-.2.56.31-.12v.34c-.23-.04-.45.11-.5.33l-.29.12.3.21c.06.22.27.36.5.33v.33l-.35-.09c.14.31.24.26.35.09.23.03.44-.11.5-.33h.34l.17.33h-.44c.11.35.28.17.44.12v.38h-.51l-.25-.25-.07.14.32.11c.25.19.46.53.83.16.17,0,.3,0,.33-.25s.11-.16.17-.24c0,0,.51.19.51.19ZM26.41,56.76l-.25-.25-.07.14.32.11.25.25.07-.14-.32-.11ZM30.06,55.1l.4-.05v-.12l-.35.18h-.25l.06.15s.14-.16.14-.16ZM27.08,57.46h-.34c.27.26.33.18.33-.07l.1-.25h-.2l.11.32ZM27.24,53.65l.48-.19-.06-.16-.42.27h-.07v.06s.07.02.07.02ZM26.45,52.65c-.29.1-.42.27-.37.51l.37-.51ZM26.21,56.03h-.2v.12s.12.05.18.06c0,0,0-.11.02-.18ZM32.53,54.63v-.32c-.05-.05-.12-.09-.19-.11l-.07.1.26.33ZM31.92,54.3l-.13.08s.08.06.13.08h.12s-.12-.16-.12-.16ZM30.85,53.97l-.06.11.21.08v-.06s-.1-.09-.15-.13ZM27.32,58.09l-.06-.14s-.1,0-.12.06,0,.09,0,.13c0,0,.18-.05.18-.05ZM26.03,57.85h-.11v.31h.07l.04-.31ZM24.92,57.46s-.11.07-.1.09c0,.05.02.09.06.12h.14s-.1-.21-.1-.21ZM32.72,56.59c-.21-.07-.26-.1-.28-.09-.05.02-.08.06-.09.11,0,0,.06.08.09.08s.1-.02.25-.07c0,0,.03-.03.03-.03ZM30.5,55.46l-.19-.1v.05l.13.15s.06-.1.06-.1ZM30.29,54.56l.18.13c0-.08-.03-.16-.06-.23l-.12.1ZM29.54,56.11l-.07-.13-.15.08s.06.08.1.1.08-.03.12-.05ZM26.29,54.83l-.2-.21c-.04.06-.07.13-.09.2.02.04.05.07.09.08.07-.02.13-.04.2-.07ZM25.36,54.83l.14-.18s0-.05-.05,0c-.06.02-.11.05-.16.09l.07.09ZM25.65,54.08v-.14h-.12v.13h.12ZM30.03,56.96h.16-.16ZM27.98,53.03v-.05l-.12.05v.05s.08-.03.12-.05ZM26.92,56.13v-.12h-.06v.13h.06ZM28.15,53.36h-.12v.05l.12-.05ZM26.83,54.68s-.04.08-.06.13c.05-.02.1-.04.15-.07,0,0-.07-.04-.09-.06ZM25.16,58.17s.06,0,0,0v-.12h-.05s.04.08.05.12ZM26,55.35s-.06.07-.08.11l.06-.12s.04.02.02,0h0ZM29,57.12h.12s-.12,0-.12,0ZM31.32,56.18h-.17.17ZM31.7,56.18h.17-.17ZM25.7,57.27s-.04.07-.05.11h.05s.01-.11.01-.16v.05h-.01ZM31.13,56.89h-.12.12ZM29.98,53.89l-.06-.08h-.12v.06l.18.02ZM30.31,54.21h.11s-.08-.05-.12-.06c0,0,.03.02.02.04v.02h-.01ZM30.81,55.21h-.05v.12h.05c.04-.07.02-.11.01-.15v.03h-.01ZM30.81,56.54l.11.02h.05l-.11-.1s-.03,0-.04.05v.03h0ZM31.35,56.54h.18-.18ZM31.8,56.54l.12.02h.05l-.11-.1s-.06.08-.06.08Z"/>
            <path class="cls-2" d="M40.22,70.88c-.06-1.12-.16-2.16-.17-3.2,0-.74.06-1.48.17-2.22.11-.58.44-1.09.92-1.43,1.44-1.23,3.11-2.16,4.91-2.73.14-.73.84-1.22,1.57-1.1.17-1,.02-2.02-.41-2.93.37.04.69.26.87.59.49.89.83,1.86,1,2.87,1.3-.23,2.62-.23,3.92,0,.54-1.33.77-2.77,2.18-3.48-.47.9-.69,1.91-.64,2.92.62-.03,1.2.32,1.46.89.18.34.5.4.81.51,1.62.57,3.09,1.48,4.32,2.67.55.52.85,1.24.84,2v3.72c.03.58-.26,1.13-.75,1.45-1.13.78-2.17,1.69-3.26,2.52-1.22.91-2.54,1.66-3.94,2.25-.49.18-1,.27-1.52.28h-2.74c-.75,0-1.48-.16-2.16-.48-1.44-.64-2.78-1.48-4-2.48-1.08-.89-2.23-1.74-3.38-2.62h0ZM136.27,59.46c-.19-.33-.54-.53-.92-.51-.83-.07-1.66-.03-2.47.13-.17.03-.33.03-.5,0h-8.88c-.22,0-.43,0-.75-.06l1.25-3.74h15.41c1.72-.03,3.14,1.33,3.17,3.04,0,0,0,0,0,0v.28c-.02.19-.05.38-.11.56-1,3-2,6-3.08,9-.21.84-.94,1.44-1.8,1.5-.57,0-1.14.15-1.71.15h-16.52c.35-1.44.79-2.86,1.3-4.25.43-1.39.88-2.76,1.31-4.1,2.22-.16,4.45-.16,6.67,0l-1.47,4.68h5.94c.73,0,1-.17,1.2-.88.51-1.56,1-3.12,1.52-4.68.1-.37.31-.77.45-1.13h0ZM121.92,55.38l-1.2,3.54h-11.6c-.7,2.18-1.4,4.31-2.08,6.45-.03.19-.03.37,0,.56.24.3.62.46,1,.43.96.07,1.93.01,2.88-.15.11-.02.22-.02.33,0h7.48c-.2,1.25-.6,2.46-1.18,3.58h-14.2c-.97.1-1.94-.23-2.65-.91-.75-.73-1.01-1.82-.67-2.81.89-2.67,1.76-5.33,2.62-8,.25-.75.47-1.51.71-2.27.06-.17.13-.35.21-.51.86-.07,17.73-.05,18.35.09ZM100.39,58.91h-11.65c-.22.68-.43,1.29-.63,1.91-.48,1.49-1,3-1.42,4.47-.21.67,0,1.05.68,1.05,1.05.1,2.1.07,3.14-.1.16-.02.33-.02.49,0h7.39c-.25,1.26-.71,2.38-1,3.58h-14.47c-.8.06-1.6-.15-2.27-.61-1.02-.74-1.41-2.09-.94-3.26.72-2.22,1.45-4.43,2.17-6.65.42-1.32.83-2.66,1.25-4h18.41c-.29,1.25-.76,2.37-1.15,3.61Z"/>
            <path class="cls-2" d="M36.51,56.63l3.48,1.11c.81-.27,1.49-.5,2.17-.71.23-.07.48-.05.72-.11.41-.05.8-.15,1.18-.31.34-.19.75-.23,1.11-.09,0,.48-.21.93-.57,1.25-.35.32-.66.67-1,1-.44.42-.76.95-.93,1.53-.39,1.22-1.07,2.31-2,3.19-.27.26-.61.46-.9.71l-1.33,1.15,1,.32c.18,1.66.2,3.34.05,5-.48.02-.97-.05-1.42-.22-1.72-.56-3.15-1.77-4-3.37-.58-.81-.87-1.8-.8-2.79.15-1.39.44-2.75.86-4.08.19-.8.53-1.57,1-2.25.32-.57.8-1.03,1.38-1.33h0ZM62.48,65.51c.47-.38,1.07-.43,1.33-1-.09-.07-.18-.14-.28-.19-1.72-.8-3.01-2.31-3.54-4.13-.28-.82-.83-1.52-1.55-2-.52-.33-.81-.92-.75-1.53.32-.16.7-.13,1,.07.47.25.99.36,1.52.33.52,0,1.04.15,1.48.43.49.27,1.07.31,1.59.1.86-.3,1.73-.56,2.63-.85.53.15.98.51,1.24,1,.54.8.93,1.69,1.17,2.62.42,1.18.62,2.43.6,3.68-.08,1.64-.87,3.16-2.17,4.17-1.18.85-2.47,1.55-3.83,2.06-.1.03-.21.04-.32.05-.17-.27-.21-.59-.11-.89.23-1.16.23-2.35,0-3.51,0-.14-.02-.27,0-.41h0ZM42.21,77.36l1.54-.4v-.13h-.65c-1.22,0-2.43-.12-3.62-.37-.9-.13-1.82-.06-2.7.2-.5.15-1.04.15-1.54,0-.89-.27-1.82-.44-2.7-.73-.54-.23-1.17-.14-1.62.25-.16.1-.33.19-.5.26.03-.78.43-1.49,1.07-1.93.79-.05,1.58.07,2.32.36.71.19,1.45.24,2.18.14,2.03-.23,4.08-.29,6.12-.19.71.02,1.42.07,2.13.17.32.05.63.15.92.31,1,.5,2,1,2.92,1.55-.7.65-1.56,1.1-2.5,1.28-.47.15-.92.34-1.36.57-.08,0-.12.16-.23.32.86.09,1.6.64,1.93,1.44h1.59c.8.01,1.58.27,2.24.72.18.16.34.33.49.52-.26.31-.53.6-.82.87-.58.54-1.26.96-2,1.25-.8.28-1.7.08-2.3-.52-.2-.15-.37-.33-.51-.54-.23-.41-.62-.71-1.08-.82-.56-.19-.99-.65-1.12-1.23-.2-.59-.36-1.19-.5-1.8-.17-.53-.06-1.12.3-1.55h0ZM53.92,76.87c1-.56,2-1.11,3-1.62.26-.14.55-.24.85-.27,1.9-.18,3.81-.23,5.71-.16,1,0,2,.18,2.94.3.66.05,1.32-.04,1.94-.28.46-.16.93-.28,1.4-.38.31-.03.62-.03.93,0,.54.53.86,1.24.9,2-.25-.15-.43-.24-.61-.36-.35-.27-.82-.34-1.24-.19-.76.24-1.58.31-2.3.62-.94.33-1.96.35-2.91.06-.75-.16-1.54-.16-2.29,0-.95.19-1.91.27-2.88.23-.37-.03-.74.01-1.09.11l1.17.36c.62.2.69.3.71.93.05.61-.09,1.21-.39,1.74-.08.14-.11.31-.1.47.03.57-.3,1.1-.83,1.32-.74.34-1.39.84-1.91,1.46-.6.69-1.58.91-2.41.53-.83-.29-1.59-.78-2.2-1.41-.2-.23-.39-.48-.55-.74,1.26-1.27,2.8-1.13,4.32-1.13.47-.68.94-1.33,1.88-1.37,0-.45-.37-.58-.67-.69s-.68-.19-1-.29c-.88-.22-1.69-.64-2.37-1.24ZM105.43,75.79h1.41l.4-.85c-.66-.15-1.33-.19-2-.12l-1.2,3.74c-.77.12-1.57,0-2.47.07l1.68-5.17h5.32c.77,0,1.09.36.91,1.1-.15.65-.37,1.29-.65,1.9-.14.29-.48.48-.82.79.69,1.38,1.58,2.78,2.27,4.28-1.69-1.6-3.41-3.18-5.15-4.73,0,0,.3-1.01.3-1.01ZM88.71,63.74l1-2.9c.77-.15,8.65-.15,9.35,0l-1,3c-3.12.13-6.24.1-9.35-.1ZM121.1,76.46h-4.29c-.31,0-.54-.18-.48-.53.03-.85.39-1.66,1-2.25.16-.14.37-.22.59-.22h6.23l.12.08c.15.38-.1.68-.33,1h-4.59l-.4.75c.24,0,.42.09.59.09h3.16c.4-.06.79.16.94.54-.2.57-.39,1.22-.64,1.85-.14.47-.57.78-1.06.76h-6.06c-.13,0-.26-.03-.38-.06l.3-.93h4.34c.65.07.94-.26.96-1.08ZM132.23,73.46l-.37,1.16h-4.73l-.28.75c.08.04.16.06.25.08h3.15c.19-.02.39-.02.58,0,.35.02.63.32.61.67,0,.05,0,.11-.03.16-.12.51-.29,1-.5,1.48-.17.48-.62.81-1.13.83h-6.22c-.07-.01-.13-.04-.19-.07l.34-.91h4.11c.89,0,1-.14,1.24-1.16h-4.23c-.65,0-.8-.21-.62-.81.12-.4.26-.78.4-1.17.15-.6.69-1.02,1.31-1.01,0,0,6.31,0,6.31,0Z"/>
            <path class="cls-2" d="M114.92,78.61h-4.6c-1,0-.9,0-1.33-.9.37-1.17.78-2.39,1.16-3.62.09-.39.45-.65.85-.61h4.48c.67,0,1,.35.76.94-.42,1.39-.88,2.76-1.32,4.19ZM113.1,77.46c.38-.9.69-1.83.91-2.78h-2c-.2,1-.75,1.75-.69,2.75l1.78.03ZM71.46,68.96l-.35-.7c.19,0,.39-.06.46,0,.22.19.4.43.52.7.08.35,0,.72-.22,1-.66.92-1.52,1.68-2.51,2.22-1,.57-2.1.95-3.24,1.11-1,.21-2,.43-3.05.61s-1.9.24-2.84.4c-.61.14-1.23.18-1.85.12.13-.27.33-.51.59-.67.65-.51,1.3-1,2-1.48.26-.2.55-.35.87-.43.59-.11,1.21-.09,1.8-.21,1.05-.13,2.12-.19,3.18-.17.77-.08,1.5-.34,2.15-.76.8-.48,1.57-1,2.35-1.53.06,0,.08-.1.14-.21ZM43.72,74.52c-.92-.09-1.86-.12-2.77-.27-1.91-.33-3.81-.73-5.71-1.1-1.51-.23-2.91-.93-4-2-.36-.36-.69-.75-1-1.16-.62-.87-.47-1.32.56-1.75.19.3-.18.49-.15.77.35.43.78.78,1.27,1.04.72.34,1.41.75,2.12,1.12.44.24.93.35,1.43.33,1.54-.02,3.07.1,4.59.34.46.07.9.26,1.25.57.82.63,1.62,1.29,2.43,1.94l-.02.17ZM94.34,78.57h-2.53l-.34-.93h-1.94c.24-.74.93-1.24,1.71-1.25l-.24-.9c-1.01.98-1.97,2-2.88,3.08h-1.94l4.52-5.11h1.63c.54.06.98.46,1.07,1,.24.89.44,1.79.65,2.7.1.47.19.92.29,1.41ZM134.86,74.78l-.76,2.28c.13.41.42.39.69.39h3.44l-.24,1c-.19.04-.38.07-.57.09h-4.73c-.55.05-1.03-.36-1.08-.91,0,0,0,0,0,0v-.17c.02-.19.05-.38.1-.57,0-.15.1-.31.15-.47.33-1,.65-1.92,1-2.92h6.57l-.4,1.25-4.17.03h0ZM97.17,77.3c.69.17,1.41.22,2.12.15h2c.02.38-.05.76-.23,1.1-.24,0-.45.06-.66.06h-4.57c-.84,0-1.32-.54-1.09-1.32.37-1.25.83-2.48,1.24-3.7,2.17-.15,4.34-.15,6.51,0l-.35,1.2h-4.12l-.85,2.51ZM81.79,77.18c.18.34.47.27.74.27h3.33c.01.37-.08.74-.27,1.06-.2,0-.39.06-.58.06h-4.64c-.84,0-1.31-.55-1.07-1.33.37-1.26.83-2.49,1.25-3.73.18,0,.31-.06.45-.06h1.93s-1.14,3.73-1.14,3.73Z"/>
            <path class="cls-2" d="M134.92,76.54l.26-1c1.07-.05,2.13,0,3.29,0l-.25,1c-1.09.2-2.21.2-3.3,0h0ZM68.92,58.58c-.77,0-1.1-.29-1.1-1-.06-.58.37-1.09.94-1.15h.06c.6.07,1.07.56,1.1,1.17-.01.54-.46.98-1,.98ZM68.53,57.08l.67.06c.22.25,0,.61.34.76.21-.34.11-.78-.22-1-.25-.19-.6-.19-.85,0-.45.31-.34.75-.24,1.26.33,0,.59.49,1,.07l-.4-.47-.34.27s.04-.95.04-.95ZM28.4,54.61v-.15h.34c.06.22.27.36.5.33l-.5.17-.34-.35ZM28.92,53.94c0,.23.1.34.33.33v.19h-.52c.02-.08.02-.15,0-.23-.15-.26,0-.28.19-.29ZM28.74,56.93l-.34-.17.34.17ZM28.4,56.46v-.2h.34v.2h-.34ZM29.24,55.27v.33h-.5v-.33h.5Z"/>
            <path class="cls-2" d="M28.24,55.27v-.34h.5v.34h-.5ZM28.24,55.93v-.33h.49v.33h-.49Z"/>
            <path class="cls-2" d="M27.92,54.94c0,.23.1.34.33.33v.33c-.23,0-.35.1-.33.33h-.5v-.33l.28-.14-.3-.17v-.35s.52,0,.52,0Z"/>
            <path class="cls-2" d="M26.92,55.6v-.33h.49v.33h-.49Z"/>
          </g>
        </g>
      </g>
      <path class="cls-1" d="M0,0h165.5v135.4H0V0Z"/>
    </g>
  </g>
</svg>