<?xml version="1.0" encoding="UTF-8"?>
<svg id="Layer_2" data-name="Layer 2" xmlns="http://www.w3.org/2000/svg" viewBox="0 0 165.5 135.4">
  <defs>
    <style>
      .cls-1 {
        fill: none;
      }

      .cls-1, .cls-2 {
        stroke-width: 0px;
      }

      .cls-3 {
        opacity: .7;
      }

      .cls-2 {
        fill: #3b82f6;
      }
    </style>
  </defs>
  <g id="Layer_2-2" data-name="Layer 2">
    <g>
      <g class="cls-3">
        <path class="cls-2" d="M120.59,41.77l-3.87,11.77h-46.46c-3.03,9.36-6.05,18.64-9.16,28.24h31.68l2.44-7.64c-.69-.1-1.39-.16-2.09-.19-4.06.08-8.1.19-12.13.32-2.52.27-4.95-1.05-6.1-3.31-1.3-2.19-1.09-4.95.52-6.92,1.48-2.06,4.07-3.01,6.53-2.39.84.17,1.7.26,2.57.25h27.07c.7.04,1.39.12,2.08.24v.6c-.69.16-1.39.27-2.09.32h-26.17c.13,1.58,1.14,1.35,2.01,1.35h25.34c.24,1.25-.46,1.38-1.24,1.39h-22.18c-.82,0-1.66.11-2.49.16l-.21.62c.43.29.91.52,1.41.67,1.28.1,2.58,0,3.87,0h20.01c0,1.66-1.03,1.35-1.77,1.35h-21.38c-.71,0-1.82-.41-1.95,1.35h24.3c-.25,1.58-1.25,1.2-1.92,1.2h-20.81c-.52-.07-1.06-.07-1.58,0-.48.21-.93.49-1.33.82l.16.55h24.74c-.36,1.28-.62,2.22-.9,3.17-.81,2.52-1.68,5.01-2.44,7.52-1.81,6.02-6.13,9.11-12.02,10.33-1.26.24-2.55.35-3.83.33h-36.84c-1.53-.01-3.05-.22-4.53-.62-4.04-1.01-5.72-3.83-4.51-7.89,1.58-5.58,3.5-11.09,5.29-16.65,1.79-5.56,3.83-11.15,5.42-16.79,1.7-6.18,7.38-10.41,13.78-10.26,16.52-.21,33.04-.11,49.58-.11.41.05.82.12,1.22.22h-.02Z"/>
      </g>
      <path class="cls-1" d="M0,0h165.5v135.4H0V0Z"/>
    </g>
  </g>
</svg>