<svg id="Layer_2" data-name="Layer 2" xmlns="http://www.w3.org/2000/svg" viewBox="0 0 165.5 135.4">
    <defs>
        <style>
            .cls-2{stroke-width:0;fill:#fff}
        </style>
    </defs>
    <g id="Layer_1-2" data-name="Layer 1">
        <g data-name="Layer 2">
            <g data-name="Layer 1-2" id="Layer_2-2">
                <g id="VHSc3L">
                    <path class="cls-2" d="M23.12 84.65h2.68c.24.02.48.1.69.22 1.45.96 2.91 1.97 4.39 2.97l2.33-1.6c.32-.18.61-.39.89-.62 1.28-1.29 2.88-1.02 4.46-.99V95.4l-2.97 1.04v-9.25l-4.7 3.2-4.7-3.2v9.3l-3.08-.97V84.65ZM94.9 96.54l-3.05-1.07v-4.24h-2.09l2.09-1.98v-4.49h15.42v6.39h-4.24v.16l5.9 4.04v.11h-1.34c-.85.12-1.72.12-2.57 0-.78-.36-1.52-.82-2.17-1.37-1.26-.86-2.54-1.74-3.82-2.59-.23-.15-.49-.23-.77-.24h-3.2l-.16 5.27Zm9.34-9.73h-9.32V89h9.32v-2.19ZM40.58 84.71h15.36V95.5L53 96.51v-5.27h-9.4v5.31l-3.02-1.07V84.72Zm3.03 2.1v2.22h9.3v-2.22h-9.3Z"/>
                    <path class="cls-2" d="M77.68 86.81v2.32h12.27l-2.14 2.11H77.69v2.17h12.37v2.06H74.65V84.78h15.39v2.03H77.67ZM136.37 89.07v-4.31h2.99v6.39h-2.94v.14l5.96 4.06v.1h-2.45a3.88 3.88 0 0 1-2.83-.88c-1.49-1.09-3.02-2.11-4.55-3.2a2.15 2.15 0 0 0-.96-.29h-4.16v5.34l-2.99-1.04V84.75h2.99v4.31h8.93ZM117.88 93.36h4.59v2.09h-12.29v-2.06h4.6v-6.58h-4.6v-2.08h12.31v2.08h-4.6v6.55ZM57.93 84.76h2.99v8.55h2.3l10.21-8.53v2.81l-2.25 1.93-6.7 5.64c-.23.18-.51.28-.8.3h-5.75V84.75Z"/>
                </g>
                <g id="H3SLdk">
                    <path class="cls-2" d="M99.91 56.15c-.03 9.52-7.77 17.22-17.29 17.19-9.52-.03-17.22-7.77-17.19-17.29.03-9.4 7.58-17.05 16.99-17.19 9.48-.19 17.31 7.35 17.5 16.82v.47Zm-3.19.16c.09-7.74-6.1-14.09-13.84-14.19-7.74-.09-14.09 6.1-14.19 13.84-.09 7.66 5.99 13.98 13.65 14.18 7.77.17 14.21-6 14.38-13.77v-.07Z"/>
                    <path class="cls-2" d="M89.75 52.35v.21L75.37 64.79l.89.72 16.8-14.21c-2.61-5.57-9.18-8.04-14.81-5.58-4.87 2.1-7.6 7.32-6.54 12.51.24-.19.48-.34.69-.53l5.55-4.7c.3-.24.64-.61.96-.62h4.36v.18l-10.6 8.95.59.89.74-.59 10.6-8.93c.26-.21.56-.5.83-.5 1.47-.06 2.91-.03 4.33-.03ZM79.3 67.05c3.67 1.18 7.69.43 10.68-2.01a11 11 0 0 0 4.11-7.35h-2.84c-.6-.02-1.18.21-1.6.64l-9.27 7.83c-.38.26-.67.53-1.07.89Zm13.52-13.13-1.49.16 1.12.94-.37 1.6 1.29-.85 1.34.85-.4-1.5 1.1-.97-1.47-.14-.51-1.53-.62 1.45Z"/>
                    <path class="cls-2" d="M89.75 52.35h-4.3c-.27 0-.58.29-.83.5l-10.6 8.93-.74.59-.62-.86 10.63-8.98v-.18h-4.36c-.32 0-.66.38-.96.62l-5.55 4.7c-.21.19-.45.34-.69.53a11.181 11.181 0 0 1 6.54-12.51c5.63-2.46 12.2.01 14.81 5.58L76.24 65.51l-.89-.72 14.38-12.23.02-.21ZM79.3 67.05c.4-.37.69-.64 1.01-.91l9.27-7.83c.42-.43 1-.66 1.6-.64h2.84a11 11 0 0 1-4.11 7.35 11.358 11.358 0 0 1-10.61 2.03ZM92.82 53.92l.62-1.45.56 1.45 1.47.14-1.1.97.4 1.5-1.33-.85-1.29.85.37-1.6-1.12-.94 1.42-.08Z"/>
                </g>
            </g>
        </g>
        <path style="stroke-width:0;fill:none" d="M0 0h165.5v135.4H0z"/>
    </g>
</svg>
