<?xml version="1.0" encoding="UTF-8"?>
<svg id="Layer_2" data-name="Layer 2" xmlns="http://www.w3.org/2000/svg" viewBox="0 0 165.5 135.4">
  <defs>
    <style>
      .cls-1 {
        fill: none;
      }

      .cls-1, .cls-2 {
        stroke-width: 0px;
      }

      .cls-3 {
        opacity: .7;
      }
    </style>
  </defs>
  <g id="Layer_2-2" data-name="Layer 2">
    <g id="Layer_1-2" data-name="Layer 1-2">
      <g class="cls-3">
        <g id="Layer_2-2" data-name="Layer 2-2">
          <g id="VHSc3L">
            <path class="cls-2" d="M23.12,84.65h2.68c.24.02.48.1.69.22,1.45.96,2.91,1.97,4.39,2.97l2.33-1.6c.32-.18.61-.39.89-.62,1.28-1.29,2.88-1.02,4.46-.99v10.77l-2.97,1.04v-9.25l-4.7,3.2-4.7-3.2v9.3l-3.08-.97v-10.87h.01ZM94.9,96.54l-3.05-1.07v-4.24h-2.09l2.09-1.98v-4.49h15.42v6.39h-4.24v.16l5.9,4.04v.11h-1.34c-.85.12-1.72.12-2.57,0-.78-.36-1.52-.82-2.17-1.37-1.26-.86-2.54-1.74-3.82-2.59-.23-.15-.49-.23-.77-.24h-3.2l-.16,5.27h0ZM104.24,86.81h-9.32v2.19h9.32v-2.19ZM40.58,84.71h15.36v10.79l-2.94,1.01v-5.27h-9.4v5.31l-3.02-1.07v-10.76h0ZM43.61,86.81v2.22h9.3v-2.22h-9.3Z"/>
            <path class="cls-2" d="M77.68,86.81v2.32h12.27l-2.14,2.11h-10.12v2.17h12.37v2.06h-15.41v-10.69h15.39v2.03h-12.37.01ZM136.37,89.07v-4.31h2.99v6.39h-2.94v.14l5.96,4.06v.1h-2.45c-1.02.09-2.04-.22-2.83-.88-1.49-1.09-3.02-2.11-4.55-3.2-.29-.17-.62-.27-.96-.29h-4.16v5.34l-2.99-1.04v-10.63h2.99v4.31h8.94ZM117.88,93.36h4.59v2.09h-12.29v-2.06h4.6v-6.58h-4.6v-2.08h12.31v2.08h-4.6v6.55h-.01ZM57.93,84.76h2.99v8.55h2.3l10.21-8.53v2.81l-2.25,1.93-6.7,5.64c-.23.18-.51.28-.8.3h-5.75v-10.71h0Z"/>
          </g>
          <g id="H3SLdk">
            <path class="cls-2" d="M99.91,56.15c-.03,9.52-7.77,17.22-17.29,17.19-9.52-.03-17.22-7.77-17.19-17.29.03-9.4,7.58-17.05,16.99-17.19,9.48-.19,17.31,7.35,17.5,16.82v.47h0ZM96.72,56.31c.09-7.74-6.1-14.09-13.84-14.19-7.74-.09-14.09,6.1-14.19,13.84-.09,7.66,5.99,13.98,13.65,14.18,7.77.17,14.21-6,14.38-13.77v-.07h0Z"/>
            <path class="cls-2" d="M89.75,52.35v.21l-14.38,12.23.89.72,16.8-14.21c-2.61-5.57-9.18-8.04-14.81-5.58-4.87,2.1-7.6,7.32-6.54,12.51.24-.19.48-.34.69-.53l5.55-4.7c.3-.24.64-.61.96-.62h4.36v.18l-10.6,8.95.59.89.74-.59,10.6-8.93c.26-.21.56-.5.83-.5,1.47-.06,2.91-.03,4.33-.03h-.01ZM79.3,67.05c3.67,1.18,7.69.43,10.68-2.01,2.29-1.81,3.77-4.45,4.11-7.35h-2.84c-.6-.02-1.18.21-1.6.64l-9.27,7.83c-.38.26-.67.53-1.07.89h-.01ZM92.82,53.92l-1.49.16,1.12.94-.37,1.6,1.29-.85,1.34.85-.4-1.5,1.1-.97-1.47-.14-.51-1.53-.62,1.45h.01Z"/>
            <path class="cls-2" d="M89.75,52.35h-4.3c-.27,0-.58.29-.83.5l-10.6,8.93-.74.59-.62-.86,10.63-8.98v-.18h-4.36c-.32,0-.66.38-.96.62l-5.55,4.7c-.21.19-.45.34-.69.53-1.06-5.19,1.67-10.42,6.54-12.51,5.63-2.46,12.2,0,14.81,5.58l-16.84,14.24-.89-.72,14.38-12.23s.02-.21.02-.21ZM79.3,67.05c.4-.37.69-.64,1.01-.91l9.27-7.83c.42-.43,1-.66,1.6-.64h2.84c-.34,2.9-1.82,5.54-4.11,7.35-2.97,2.42-6.96,3.19-10.61,2.03ZM92.82,53.92l.62-1.45.56,1.45,1.47.14-1.1.97.4,1.5-1.33-.85-1.29.85.37-1.6-1.12-.94,1.42-.08h0Z"/>
          </g>
        </g>
      </g>
      <path class="cls-1" d="M0,0h165.5v135.4H0V0Z"/>
    </g>
  </g>
</svg>