<svg id="Layer_2" data-name="Layer 2" xmlns="http://www.w3.org/2000/svg" viewBox="0 0 165.5 135.4">
    <defs>
        <style>
            .cls-2{stroke-width:0;fill:#fff}
        </style>
    </defs>
    <g id="Layer_1-2" data-name="Layer 1">
        <g data-name="Layer 2">
            <g data-name="Layer 1-2" id="Layer_2-2">
                <g id="cMwJuL.tif">
                    <path class="cls-2" d="m34.67 45.75-1.55 3.72c-1.32 2.94-2.07 6.1-2.2 9.32-.1 6.21 3.33 10.87 9.15 12.13 3.41.73 6.94.66 10.32-.2 5.8-1.36 11.57-2.89 17.33-4.44 13.38-3.54 26.63-7.16 39.94-10.74l37.92-10.16c.61-.16 1.25-.24 1.87-.37-.52.35-1.06.66-1.62.94l-52.8 22.53C79.21 74.34 65.4 80.23 51.58 86.16A61.239 61.239 0 0 1 38 90.23c-3.59.73-7.3.67-10.87-.18-5.75-1.43-9.8-6.56-9.87-12.48.1-5.22 1.57-10.33 4.25-14.82 2.62-4.58 5.72-8.86 9.25-12.78 1.26-1.44 2.62-2.8 3.94-4.2l-.04-.03ZM147.46 45l.77-.34v.2l-.87.11.1.03Z"/>
                    <path class="cls-2" d="m34.71 45.77.08-.14-.12.11.04.03Z"/>
                </g>
            </g>
        </g>
        <path style="stroke-width:0;fill:none" d="M0 0h165.5v135.4H0z"/>
    </g>
</svg>
