<?xml version="1.0" encoding="UTF-8"?>
<svg id="Layer_2" data-name="Layer 2" xmlns="http://www.w3.org/2000/svg" viewBox="0 0 165.5 135.4">
  <defs>
    <style>
      .cls-1 {
        fill: none;
      }

      .cls-1, .cls-2 {
        stroke-width: 0px;
      }

      .cls-3 {
        opacity: .7;
      }
    </style>
  </defs>
  <g id="Layer_2-2" data-name="Layer 2">
    <g id="Layer_1-2" data-name="Layer 1-2">
      <g class="cls-3">
        <g id="Layer_2-2" data-name="Layer 2-2">
          <g id="_3Hdp6A.tif" data-name=" 3Hdp6A.tif">
            <path class="cls-2" d="M80.96,85.6h-7.24v-.1c2.43-8.29,4.86-16.58,7.27-24.89.18-.62.35-1.25.55-1.92h-12.62l7.47-7c-.11,0-.22.02-.31.08-3.91,2.27-7.8,4.51-11.67,6.72-.23.13-.49.2-.76.2h-24.78c-.25,0-.38.06-.45.31-.2.69-.44,1.38-.66,2.07l-.64,2h31c0,.14-.06.25-.09.35-1.69,5.59-3.38,11.22-5.09,16.87-.2.83-.48,1.64-.83,2.42-.81,1.63-2.5,2.64-4.32,2.57H19.22l.16-.14,12.94-8.5c.27-.19.58-.29.91-.29h21c.26,0,.39-.06.47-.33.24-.8.51-1.6.77-2.4l.52-1.63h-31c0-.16.06-.29.09-.41,1.81-6,3.62-12,5.41-18,.13-.65.42-1.25.83-1.77.68-.68,1.53-1.16,2.46-1.38,1.69-.46,3.43-.66,5.18-.62h71.41c.08,0,.17,0,.25,0,.17.04.33.12.47.23,2.46,2.84,4.9,5.69,7.35,8.54l1.78,2.07c.42-.4.83-.77,1.23-1.14,3.33-3.11,6.67-6.21,10-9.3.15-.13.35-.21.55-.21h14.27l-19.56,18.22,14.44,17.07h-13.06c-.25.01-.5-.1-.65-.3-2.22-2.62-4.44-5.23-6.67-7.84l-1.61-1.87-2.49,2.32c-2.72,2.54-5.44,5.08-8.17,7.61-.13.13-.3.2-.48.21h-14.24l23.88-22.37c-.1-.03-.2-.03-.3,0l-6.24,2.49c-.15.09-.35.05-.44-.1-1.83-2.17-3.66-4.33-5.46-6.5-.13-.17-.33-.26-.54-.24h-11l-.1.3-6.51,22.36c-.19.68-.53,1.31-1,1.84-.97,1.06-2.25,1.8-3.65,2.11-.47.12-.97.19-1.46.29h0Z"/>
            <path class="cls-2" d="M145.95,80.06c-.02,1.35-1.13,2.43-2.48,2.42-1.35-.02-2.43-1.13-2.42-2.48.02-1.35,1.13-2.43,2.48-2.42,1.33,0,2.41,1.06,2.41,2.39v.09h0ZM145.48,80.06c.04-1.1-.81-2.03-1.92-2.08h-.08c-1.15.08-2.02,1.08-1.94,2.23.07,1.04.9,1.87,1.94,1.94,1.1,0,2-.9,2-2v-.09Z"/>
            <path class="cls-2" d="M144.06,80.15c.49.33.32.9.54,1.33-.51.07-.54,0-.63-.47s-.24-.74-.92-.66v1.15h-.43v-2.8h1.2c.4.01.71.35.69.74,0,.26-.16.5-.39.62,0,0-.06.09-.06.09ZM143.06,79.96c.37,0,.73.07.91-.28.05-.16.03-.33-.07-.47-.22-.22-.56-.27-.84-.13v.88Z"/>
          </g>
        </g>
      </g>
      <path class="cls-1" d="M0,0h165.5v135.4H0V0Z"/>
    </g>
  </g>
</svg>