<svg id="Layer_2" data-name="Layer 2" xmlns="http://www.w3.org/2000/svg" viewBox="0 0 165.5 135.4">
    <defs>
        <style>
            .cls-2{stroke-width:0;fill:#fff}
        </style>
    </defs>
    <g id="Layer_1-2" data-name="Layer 1">
        <g data-name="Layer 2">
            <g data-name="Layer 1-2" id="Layer_2-2">
                <path class="cls-2" d="M94.67 73.75c-2.8-.11-5.52-1-7.86-2.56a18.35 18.35 0 0 1-5.25-5.1c.92.57 1.91 1.02 2.94 1.36 1.17.45 2.44.54 3.66.26 2.13-.69 2.58-3.14 2.94-5.71.48-4.81.54-9.66.18-14.48v-1.03c-.05-.33-.05-.67 0-1.01.07-.24.42-.48.69-.58.8-.26 1.63-.41 2.47-.45 3.12-.05 6.24.17 9.33.65l.65.07c.21.01.41.04.61.08.1 0 0 .12-.15.31-3.11 3.42-5.55 7.4-7.19 11.72a62.814 62.814 0 0 0-3.02 16.46ZM27.61 78.59h5.51c-1.36 3.89-2.72 7.74-4.08 11.61.82-.04 1.62-.22 2.38-.53.7-.21 1.31-.64 1.75-1.22.18-.39.33-.8.44-1.22 1.01-2.83 2.12-5.86 3.07-8.63h5.44c-1.36 3.87-2.72 7.75-4.08 11.64.84-.08 1.66-.26 2.45-.56.7-.22 1.31-.65 1.75-1.22.18-.4.32-.8.44-1.22l3.05-8.63h6.88c0 .08-.11.1-.16.12-.26.16-.51.33-.75.52a7.41 7.41 0 0 0-1.36 2.42c-.79 1.84-1.36 3.67-2.05 5.61a5.4 5.4 0 0 1-1.48 2.41c-2.72 2.43-7.82 2.22-13.1 2.19l.54-1.26c-1.61.64-3.31 1.05-5.03 1.24-2.01.1-4.08 0-6.28 0 1.55-4.42 3.1-8.85 4.69-13.24ZM67.89 78.59 63.2 91.86h-5.44c.6-1.82 1.24-3.6 1.88-5.44h-3.55c-.67 1.75-1.28 3.58-1.9 5.44h-6.7c0-.1.15-.18.24-.26.74-.64 1.35-1.42 1.79-2.3.29-.63.46-1.36.69-1.96.49-1.36.91-2.56 1.36-3.92.2-.66.47-1.31.8-1.92 2.37-3.77 9.46-2.72 15.51-2.92Zm-6.22 1.56a5.1 5.1 0 0 0-3.59 1.18c-.36.49-.63 1.04-.77 1.63l-.64 1.77h3.55c.46-1.36.97-2.72 1.43-4.08 0-.18.19-.38.12-.57l-.1.07ZM69.85 78.59c3.45.11 7.25-.16 10.88 0 1.13 0 2.72.27 3 1.13s-.19 1.6-.44 2.3a10.4 10.4 0 0 1-.58 1.56 3.85 3.85 0 0 1-2.58 1.36c.8.29 1.75.9 1.36 2.05-.15.39-.45.79-.65 1.21-.26.45-.41.95-.45 1.47.08.79.4 1.53.9 2.15h-7.03c.53-1.51 1.14-3.32 1.73-4.95.12-.23.18-.49.18-.75-.1-.39-.98-.34-1.5-.37s-1.21 0-1.79 0c-.77 1.98-1.44 4.08-2.16 6.09h-5.55c1.56-4.42 3.11-8.85 4.69-13.25Zm3.57 5.53c1.36-.1 2.94.26 3.64-.49.16-.26.28-.54.35-.84.31-.73.56-1.49.75-2.27-.68-.54-2.19-.26-3.34-.34-.48 1.33-.95 2.61-1.4 3.94ZM87.13 78.59c3.56.11 7.22-.16 10.88 0 1.17 0 2.72.3 3.05 1.21.03.25.03.5 0 .75-.14.52-.32 1.03-.52 1.54-.14.51-.32 1.01-.54 1.5-.64.78-1.57 1.26-2.57 1.36.77.3 1.74.86 1.36 2.03-.2.42-.42.84-.67 1.24-.25.46-.38.97-.39 1.5.11.77.43 1.49.91 2.09h-7.1l1.73-4.84c.12-.23.18-.49.19-.75-.11-.39-.99-.34-1.5-.37s-1.22 0-1.81 0c-.76 1.98-1.43 4.08-2.16 6.09h-5.53c1.55-4.48 3.11-8.92 4.68-13.34Zm3.56 5.53c1.15.13 2.32.02 3.43-.31.32-.28.53-.66.61-1.07.31-.72.55-1.46.72-2.22-.68-.54-2.19-.26-3.34-.34-.49 1.33-.92 2.69-1.41 3.94ZM104.31 78.59h5.52c-1.55 4.43-3.14 8.81-4.66 13.27H99.6c1.58-4.42 3.1-8.89 4.72-13.27ZM115.74 78.9c-1.59.17-3.09.83-4.3 1.88-.52.57-.9 1.25-1.11 1.98-1.02 2.84-2.13 5.94-3.24 9.09 2.72-.1 5.93.15 8.7-.11 1.24-.1 2.46-.34 3.64-.72 1.07-.27 2.06-.81 2.85-1.58.38-.53.66-1.13.83-1.77 1.06-3.06 2.12-6.08 3.17-9.09-3.55.08-7.49-.23-10.55.31Zm4.35 1.79c-.79 2.31-1.63 4.72-2.46 7.06-.11.45-.3.87-.54 1.26a5.452 5.452 0 0 1-3.86 1.21c.83-2.42 1.75-4.96 2.62-7.41.1-.36.22-.7.38-1.03.69-1.16 2.18-1.47 3.89-1.58h.11c.11 0-.07.34-.14.49ZM128.75 78.59h11.11c1.22 0 2.72.31 2.72 1.5-.05.59-.2 1.18-.46 1.71-.15.56-.34 1.1-.57 1.63-.61.86-1.57 1.42-2.62 1.52.75.33 1.73.8 1.36 2-.39.7-.73 1.43-1.01 2.19-.11.98.2 1.97.84 2.72h-6.99c.54-1.51 1.16-3.3 1.73-4.95.12-.23.18-.49.18-.75-.11-.39-.98-.34-1.5-.37s-1.21 0-1.79 0c-.75 2-1.44 4.08-2.13 6.09h-5.57c1.58-4.45 3.1-8.92 4.72-13.3Zm3.57 5.53c1.36-.08 3.06.26 3.67-.54.26-.47.45-.96.57-1.48.1-.24.19-.48.29-.75s.27-.63.2-.83-.41-.24-.61-.29c-.86-.14-1.85 0-2.72 0-.5 1.28-.94 2.64-1.4 3.89ZM141.56 90.43c1.17-.26 1.11 1.47.12 1.36a.735.735 0 0 1-.13-1.36Zm.67.45a.54.54 0 1 0-.98.46c.13.27.45.39.72.26.05-.02.09-.05.13-.08.17-.16.23-.42.14-.64Z"/>
                <path class="cls-2" d="M141.89 91.52c-.08-.11-.07-.33-.26-.34s0 .23 0 .34h-.18v-.77c.21-.02.42-.02.63 0 .06.08.09.19.07.29 0 0-.08.14-.2.12.04.11.1.22.18.31 0 0-.16.04-.23.05Zm-.29-.49c.16 0 .35 0 .34-.14s-.2 0-.34 0v.14Z"/>
                <path class="cls-2" d="M141.6 90.88h.34c.05 0-.18.14-.34.14v-.14ZM88.57 44.15c0 .14-.14.22-.2.29a18.788 18.788 0 0 0-3.22 5.61c-.95 2.25-1.79 4.55-2.51 6.89-.76 2.39-1.47 4.84-2.07 7.37-.67 2.6-1.17 5.24-1.5 7.91-2.84-.22-5.53-1.37-7.64-3.28-2-1.65-3.72-3.61-5.08-5.82 1.38 1.18 2.95 2.12 4.64 2.79.67.27 1.39.38 2.11.33 1.79-.18 2.42-1.96 2.72-3.75.42-3.98.28-8-.41-11.95-.19-1.36-.42-2.79-.65-4.2-.11-.44-.15-.9-.12-1.36.11-.33.35-.59.67-.72.94-.44 1.96-.69 3-.73 3.44-.17 6.88.04 10.28.63Z"/>
                <path class="cls-2" d="M69.31 44.94c0 .11-.12.2-.2.29-.84.95-.63 3.14-.29 4.51.9 3.45 2.75 6.58 5.33 9.04-3.77-2.48-7.37-5.21-10.78-8.16-.57-.48-1.12-1-1.63-1.55a3.863 3.863 0 0 1-1.21-1.93c-.07-.98.83-1.36 1.6-1.67 2.35-.58 4.77-.76 7.18-.53ZM142.09 91.52c-.23.2-.57.17-.77-.05s-.17-.57.05-.77c.23-.2.57-.17.77.05.03.04.06.08.08.13.09.22.04.48-.14.64Zm0 0c-.07-.09-.13-.2-.18-.31.12 0 .15 0 .2-.12.02-.1 0-.2-.07-.29-.21-.02-.42-.02-.63 0v.77h.18v-.34c0-.07.18.23.26.34s.22-.03.23-.08v.03Z"/>
            </g>
        </g>
        <path style="stroke-width:0;fill:none" d="M0 0h165.5v135.4H0z"/>
    </g>
</svg>
