<?xml version="1.0" encoding="UTF-8"?>
<svg id="a" data-name="Layer 1" xmlns="http://www.w3.org/2000/svg" width="1599.784" height="86.605" viewBox="0 0 1599.784 86.605">
  <polygon points="1487.83 0 1351.395 0 1333.877 0 1301.734 0 313.778 0 183.674 0 165.475 0 96.254 0 0 0 0 86.605 111.955 86.605 248.389 86.605 265.907 86.605 298.051 86.605 1286.006 86.605 1416.11 86.605 1434.309 86.605 1503.531 86.605 1599.784 86.605 1599.784 0 1487.83 0" fill="#fff"/>
  <g>
    <g>
      <path d="m495.759,22.883v39.382c10.342-.616,18.54-9.194,18.54-19.691s-8.198-19.075-18.54-19.691Z" fill="#0e2345"/>
      <polygon points="484.943 42.574 493.379 49.101 493.379 36.047 484.943 42.574" fill="#0e2345"/>
      <path d="m493.379,33.038v-10.155c-10.342.616-18.54,9.194-18.54,19.691s8.198,19.075,18.54,19.691v-10.155l-12.326-9.536,12.326-9.536Z" fill="#0e2345"/>
    </g>
    <g>
      <g>
        <path d="m524.817,30.772h8.951v17.462h17.123v5.934h-26.074v-23.395Z" fill="#0e2345"/>
        <path d="m564.826,30.772h13.427l12.918,23.395h-10.138l-2.204-4.17h-15.631l-2.204,4.17h-9.087l12.918-23.395Zm1.322,13.63h9.731l-4.849-9.256-4.882,9.256Z" fill="#0e2345"/>
        <path d="m603.919,42.3l-11.833-11.528h11.325l6.713,6.68,6.917-6.68h10.986l-12.41,11.257,12.986,12.138h-12.003l-7.222-7.12-6.883,7.12h-10.986l12.41-11.867Z" fill="#0e2345"/>
        <path d="m639.656,49.285v-13.63l4.882-4.882h21.87l4.475,4.476v3.628h-5.425v-2.102l-2.17-2.204h-15.495l-2.611,2.611v10.579l2.611,2.611h15.495l2.17-2.204v-2.306h5.425v3.831l-4.475,4.476h-21.87l-4.882-4.882Z" fill="#0e2345"/>
        <path d="m674.851,49.285v-13.63l4.882-4.882h22.073l4.882,4.882v13.63l-4.882,4.882h-22.073l-4.882-4.882Zm23.7,1.085l2.611-2.611v-10.579l-2.611-2.611h-15.563l-2.611,2.611v10.579l2.611,2.611h15.563Z" fill="#0e2345"/>
        <path d="m710.662,30.772h8.849l11.223,19.733,11.426-19.733h8.748v23.395h-5.459v-19.767l-11.325,19.767h-7.222l-11.121-19.767v19.767h-5.12v-23.395Z" fill="#0e2345"/>
      </g>
      <circle cx="633.791" cy="51.423" r="2.952" fill="#0e2345"/>
    </g>
  </g>
</svg>