<?xml version="1.0" encoding="UTF-8"?>
<svg id="a" data-name="Isolation Mode" xmlns="http://www.w3.org/2000/svg" width="1600.785" height="109.668" viewBox="0 0 1600.785 109.668">
  <g>
    <polygon points="696.338 45.577 692.851 49.063 692.851 63.19 696.338 66.676 717.12 66.676 720.606 63.19 720.606 49.063 717.12 45.577 696.338 45.577" fill="#fff"/>
    <path d="m717.327,67.176h-21.196l-3.779-3.779v-14.54l3.779-3.779h21.196l3.778,3.779v14.54l-3.778,3.779Zm-20.782-1h20.368l3.192-3.193v-13.712l-3.192-3.193h-20.368l-3.193,3.193v13.712l3.193,3.193Z" fill="#e5e5e5"/>
  </g>
  <g>
    <polygon points="540.311 58.707 553.305 58.707 546.831 46.346 540.311 58.707" fill="#fff"/>
    <path d="m554.132,59.207h-14.65l7.351-13.935,7.3,13.935Zm-12.992-1h11.34l-5.651-10.786-5.688,10.786Z" fill="#e5e5e5"/>
  </g>
  <g>
    <path d="m1488.33.5H.5v108.669h1599.784V.5h-111.955ZM443.136,64.981l-11.266-8.716,11.266-8.716v17.431Zm0-21.45l-16.46,12.734,16.46,12.734v13.561c-13.811-.822-24.758-12.278-24.758-26.295s10.948-25.473,24.758-26.295v13.561Zm3.178,39.029V29.97c13.811.822,24.758,12.278,24.758,26.295s-10.947,25.473-24.758,26.295Zm73.621-10.813h-34.818v-31.241h11.953v23.318h22.865v7.924Zm40.251,0l-2.943-5.569h-20.873l-2.943,5.569h-12.135l17.251-31.241h17.93l17.251,31.241h-13.538Zm47.496,0l-9.644-9.508-9.191,9.508h-14.67l16.572-15.847-15.802-15.394h15.123l8.965,8.92,9.237-8.92h14.67l-16.572,15.032,17.341,16.209h-16.028Zm22.956.278c-2.177,0-3.942-1.765-3.942-3.942s1.765-3.942,3.942-3.942,3.942,1.765,3.942,3.942-1.765,3.942-3.942,3.942Zm49.533-20.698h-7.244v-2.807l-2.898-2.943h-20.691l-3.486,3.486v14.127l3.486,3.486h20.691l2.898-2.943v-3.079h7.244v5.116l-5.977,5.977h-29.204l-6.52-6.52v-18.202l6.52-6.52h29.204l5.977,5.977v4.845Zm47.813,13.9l-6.52,6.52h-29.476l-6.52-6.52v-18.202l6.52-6.52h29.476l6.52,6.52v18.202Zm59.051,6.52h-7.29v-26.397l-15.123,26.397h-9.644l-14.851-26.397v26.397h-6.837v-31.241h11.817l14.987,26.351,15.258-26.351h11.682v31.241Z" fill="#fff"/>
    <path d="m1600.785,109.668H0V0h1600.785v109.668ZM1,108.668h1598.785V1H1v107.668Zm444.814-25.577V29.439l.529.031c14.147.842,25.229,12.612,25.229,26.795s-11.082,25.952-25.229,26.794l-.529.031Zm1-52.585v51.519c13.365-1.068,23.759-12.282,23.759-25.759s-10.394-24.69-23.759-25.76Zm-3.178,52.585l-.529-.031c-14.147-.842-25.229-12.611-25.229-26.794s11.081-25.953,25.229-26.795l.529-.031v14.337l-16.143,12.489,16.143,12.488v14.337Zm-1-52.585c-13.365,1.069-23.758,12.282-23.758,25.76s10.393,24.69,23.758,25.759v-12.78l-16.777-12.979,16.777-12.979v-12.78Zm188.003,42.02c-2.449,0-4.442-1.993-4.442-4.442s1.993-4.442,4.442-4.442,4.442,1.993,4.442,4.442-1.993,4.442-4.442,4.442Zm0-7.885c-1.898,0-3.442,1.544-3.442,3.442s1.544,3.442,3.442,3.442,3.442-1.544,3.442-3.442-1.544-3.442-3.442-3.442Zm156.897,7.606h-8.29v-25.018l-14.332,25.018h-10.228l-.143-.255-13.915-24.733v24.988h-7.837v-32.241h12.608l14.7,25.847,14.966-25.847h12.47v32.241Zm-7.29-1h6.29v-30.241h-10.894l-15.55,26.856-15.274-26.856h-11.026v30.241h5.837v-27.805l15.643,27.805h9.062l15.912-27.775v27.775Zm-58.573,1h-29.891l-6.812-6.812v-18.616l6.812-6.812h29.891l6.812,6.812v18.616l-6.812,6.812Zm-29.477-1h29.062l6.227-6.227v-17.788l-6.227-6.227h-29.062l-6.227,6.227v17.788l6.227,6.227Zm-17.794,1h-29.618l-6.812-6.812v-18.616l6.812-6.812h29.618l6.27,6.27v5.552h-8.244v-3.103l-2.606-2.647h-20.275l-3.193,3.193v13.712l3.193,3.193h20.275l2.606-2.647v-3.374h8.244v5.823l-6.27,6.27Zm-29.204-1h28.79l5.684-5.684v-4.409h-6.244v2.784l-3.188,3.237h-21.107l-3.779-3.779v-14.54l3.779-3.779h21.107l3.188,3.237v2.513h6.244v-4.138l-5.684-5.684h-28.79l-6.227,6.227v17.788l6.227,6.227Zm-20.221,1h-17.5l-9.431-9.297-8.987,9.297h-29.175l-2.942-5.569h-20.271l-2.943,5.569h-13.282l17.803-32.241h18.52l17.236,31.214,16.024-15.322-16.312-15.892h16.558l8.764,8.72,9.03-8.72h16.167l-17.128,15.538,17.869,16.703Zm-17.09-1h14.556l-16.812-15.715,16.015-14.526h-13.173l-9.444,9.12-9.167-9.12h-13.686l15.292,14.897-16.046,15.344h13.213l9.394-9.719,9.858,9.719Zm-47.399,0h12.389l-16.698-30.241h-17.34l-16.698,30.241h10.985l2.942-5.569h21.476l2.944,5.569Zm-40.054,1h-35.818v-32.241h12.954v23.317h22.864v8.924Zm-34.818-1h33.818v-6.924h-22.864v-23.317h-10.954v30.241Zm-41.98-5.247l-12.583-9.734,12.583-9.734v19.469Zm-10.948-9.734l9.948,7.697v-15.395l-9.948,7.697Z" fill="#e5e5e5"/>
  </g>
</svg>