<?xml version="1.0" encoding="UTF-8"?>
<svg id="a" data-name="Layer 1" xmlns="http://www.w3.org/2000/svg" width="1599.784" height="175.109" viewBox="0 0 1599.784 175.109">
  <g>
    <path d="m112.66,153.527C76.794,106.131,82.978,40.073,124.969,0H0v175.109h133.981c-7.843-6.096-15.04-13.283-21.321-21.582Z" fill="#fff"/>
    <path d="m285.049,0c4.381,4.203,8.503,8.784,12.284,13.78,37.174,49.124,29.189,118.304-17.031,157.813L150.452,0h-17.518l32.721,43.24-23.914,88.281,91.457.975,32.247,42.613h1334.34V0H285.049Zm-125.104,117.746l16.368-60.422,46.229,61.09-62.596-.667Z" fill="#fff"/>
  </g>
  <g>
    <g>
      <path d="m559.085,62.579h19.068v37.196h36.474v12.64h-55.542v-49.836Z" fill="#0e2345"/>
      <path d="m644.311,62.579h28.601l27.518,49.836h-21.596l-4.695-8.884h-33.296l-4.695,8.884h-19.356l27.518-49.836Zm2.817,29.035h20.729l-10.328-19.717-10.4,19.717Z" fill="#0e2345"/>
      <path d="m727.587,87.136l-25.207-24.557h24.123l14.301,14.229,14.734-14.229h23.401l-26.434,23.979,27.662,25.857h-25.568l-15.384-15.167-14.662,15.167h-23.401l26.435-25.279Z" fill="#0e2345"/>
      <path d="m803.713,102.014v-29.035l10.4-10.4h46.586l9.533,9.534v7.728h-11.556v-4.478l-4.622-4.695h-33.006l-5.562,5.561v22.534l5.562,5.561h33.006l4.622-4.695v-4.912h11.556v8.162l-9.533,9.534h-46.586l-10.4-10.4Z" fill="#0e2345"/>
      <path d="m878.684,102.014v-29.035l10.4-10.4h47.019l10.4,10.4v29.035l-10.4,10.4h-47.019l-10.4-10.4Zm50.486,2.311l5.561-5.561v-22.534l-5.561-5.561h-33.151l-5.562,5.561v22.534l5.562,5.561h33.151Z" fill="#0e2345"/>
      <path d="m954.968,62.579h18.851l23.907,42.035,24.34-42.035h18.634v49.836h-11.628v-42.107l-24.123,42.107h-15.384l-23.69-42.107v42.107h-10.906v-49.836Z" fill="#0e2345"/>
    </g>
    <circle cx="791.218" cy="106.57" r="6.289" fill="#0e2345"/>
  </g>
</svg>