<?xml version="1.0" encoding="UTF-8"?>
<svg id="b" data-name="Layer 2" xmlns="http://www.w3.org/2000/svg" width="1600" height="175.133" viewBox="0 0 1600 175.133">
  <g id="c" data-name="Layer 1">
    <g>
      <g>
        <path d="m112.676,153.548C76.804,106.145,82.989,40.079,124.986,0H0v175.133h133.999c-7.844-6.097-15.042-13.285-21.323-21.585Z" fill="#fff"/>
        <path d="m285.087,0c4.382,4.203,8.504,8.785,12.285,13.782,37.179,49.131,29.193,118.32-17.034,157.834L150.472,0h-17.52l32.726,43.246-23.917,88.292,91.469.976,32.251,42.619h1334.52V0H285.087Zm-125.121,117.761l16.37-60.43,46.235,61.098-62.605-.668Z" fill="#fff"/>
      </g>
      <g>
        <g>
          <path d="m559.161,62.588h19.07v37.201h36.479v12.641h-55.549v-49.842Z" fill="#0e2345"/>
          <path d="m644.398,62.588h28.605l27.522,49.842h-21.598l-4.695-8.885h-33.3l-4.695,8.885h-19.359l27.522-49.842Zm2.817,29.039h20.732l-10.33-19.72-10.402,19.72Z" fill="#0e2345"/>
          <path d="m727.685,87.148l-25.21-24.56h24.126l14.303,14.23,14.736-14.23h23.404l-26.438,23.982,27.666,25.86h-25.571l-15.386-15.169-14.664,15.169h-23.404l26.438-25.282Z" fill="#0e2345"/>
          <path d="m803.821,102.028v-29.039l10.402-10.402h46.592l9.535,9.535v7.729h-11.558v-4.478l-4.623-4.695h-33.011l-5.562,5.562v22.537l5.562,5.562h33.011l4.623-4.695v-4.912h11.558v8.163l-9.535,9.535h-46.592l-10.402-10.402Z" fill="#0e2345"/>
          <path d="m878.802,102.028v-29.039l10.402-10.402h47.026l10.402,10.402v29.039l-10.402,10.402h-47.026l-10.402-10.402Zm50.493,2.312l5.562-5.562v-22.537l-5.562-5.562h-33.156l-5.562,5.562v22.537l5.562,5.562h33.156Z" fill="#0e2345"/>
          <path d="m955.096,62.588h18.853l23.91,42.041,24.343-42.041h18.636v49.842h-11.63v-42.113l-24.126,42.113h-15.386l-23.693-42.113v42.113h-10.907v-49.842Z" fill="#0e2345"/>
        </g>
        <circle cx="791.325" cy="106.584" r="6.289" fill="#0e2345"/>
      </g>
    </g>
  </g>
</svg>